<svg id="Layer_1" data-name="Layer 1" xmlns="http://www.w3.org/2000/svg" xmlns:xlink="http://www.w3.org/1999/xlink" viewBox="0 0 699.03 699.04"><defs><style>.cls-1{fill:#206bc4;}.cls-2{fill:url(#linear-gradient);}.cls-3{fill:#fff;opacity:0.96;}</style><linearGradient id="linear-gradient" x1="627.75" y1="636.27" x2="404.27" y2="363.69" gradientUnits="userSpaceOnUse"><stop offset="0" stop-color="#fff"/><stop offset="0.24" stop-color="#fcfeff"/><stop offset="0.38" stop-color="#f4fbfe"/><stop offset="0.5" stop-color="#e6f5fc"/><stop offset="0.61" stop-color="#d1edf9"/><stop offset="0.7" stop-color="#b7e3f5"/><stop offset="0.79" stop-color="#97d6f1"/><stop offset="0.88" stop-color="#70c7ec"/><stop offset="0.96" stop-color="#45b6e6"/><stop offset="1" stop-color="#29abe2"/></linearGradient></defs><title>main logo</title><path class="cls-1" d="M500.29,150.85H609.45c3,0,5.92,0,8.88.07,4,.14,8.1-.14,11.92.77,3.18.77,6.45.33,9.59,1.46,2.34.84,5,.71,7.54,1.09,3.3.51,6.65.9,9.89,1.69,5.3,1.31,10.49,3.07,15.8,4.32,6.45,1.52,12.52,4.11,18.76,6.21A120.57,120.57,0,0,1,705,172c7,3.33,13.84,6.83,20.66,10.43,3.37,1.78,6.58,3.87,9.77,6,4.8,3.13,9.56,6.3,14.24,9.6,3,2.11,5.84,4.41,8.66,6.75,4.33,3.61,8.73,7.17,12.83,11,5.26,5,10.4,10.11,15.31,15.44,3.82,4.15,7.3,8.62,10.78,13.07,3.77,4.82,7.49,9.69,11,14.73,2.88,4.18,5.38,8.61,8,13,1.12,1.84,2.13,3.74,3.17,5.63,1.92,3.47,4,6.89,5.71,10.44s3.15,7,4.65,10.47c1.71,4,3.45,8,5,12.12,1.36,3.65,2.49,7.4,3.64,11.13,1.42,4.61,2.8,9.24,4.1,13.88.52,1.83.81,3.73,1.2,5.59s.76,3.55,1.12,5.34c.75,3.74,1.58,7.47,2.19,11.24.48,3.06.65,6.17,1,9.25.16,1.32.51,2.63.71,3.95.12.79.14,1.59.2,2.38.21,2.92-.34,5.9.86,8.74a5.63,5.63,0,0,1,.08,2.14q0,93,0,186,0,22.92-.07,45.83a34.74,34.74,0,0,1-.58,3.73c-.15,1.34-.21,2.7-.3,4.05-.15,2.37.34,4.8-.8,7.06a1.83,1.83,0,0,0-.08.71c-.33,3.41-.55,6.84-1,10.23-.33,2.43-1,4.82-1.49,7.23-.22,1.1-.25,2.23-.48,3.32-1,4.64-2,9.29-3.16,13.92-.8,3.31-1.61,6.63-2.66,9.87-1.54,4.75-3.29,9.43-5,14.14-1.19,3.29-2.28,6.63-3.69,9.83-2,4.58-4.18,9.11-6.46,13.58-2.67,5.24-5.41,10.45-8.33,15.55-2.34,4.06-4.91,8-7.53,11.88S802.83,749,800,752.79c-2.1,2.8-4.38,5.46-6.63,8.15-3,3.54-5.88,7.13-9,10.52-3.29,3.57-6.75,7-10.25,10.35-2.92,2.81-5.91,5.56-9,8.15-4.83,4-9.72,8-14.74,11.76-4.25,3.21-8.66,6.21-13.08,9.19-2.63,1.78-5.38,3.38-8.12,5a240.69,240.69,0,0,1-22.05,11.41c-5.34,2.44-10.8,4.64-16.27,6.77-4.65,1.82-9.37,3.45-14.1,5.06-2,.66-4,1.05-6,1.58-3.23.85-6.44,1.8-9.7,2.55s-6.52,1.29-9.78,1.93c-2.73.53-5.44,1.11-8.18,1.6-1.33.25-2.68.35-4,.51-5.91.71-11.79,1.71-17.77,1.73a23.23,23.23,0,0,0-3.26.58,15.71,15.71,0,0,1-2.37.22q-13.92,0-27.83,0H385.3a16.45,16.45,0,0,1-4.21-.59,28.66,28.66,0,0,0-6-.34c-1.74-.07-3.52.2-5.15-.72a2.41,2.41,0,0,0-.94-.15c-3.41-.33-6.83-.6-10.23-1-1.81-.21-3.6-.64-5.4-1-3-.52-6-.9-8.92-1.57-3.79-.86-7.52-1.95-11.28-2.94-1.23-.32-2.49-.56-3.7-.94-4.69-1.46-9.4-2.87-14-4.47q-7.44-2.58-14.76-5.51c-2.94-1.17-5.77-2.62-8.64-4-3.88-1.85-7.76-3.7-11.61-5.61-1.77-.89-3.48-1.91-5.19-2.91-3.84-2.24-7.74-4.4-11.48-6.81s-7.52-5.06-11.14-7.78c-5.36-4-10.75-8-15.82-12.36-5.25-4.5-10.2-9.35-15.19-14.15a231,231,0,0,1-19.29-21.83c-2.75-3.41-5.27-7-7.68-10.66-4-6-8-12.09-11.7-18.32a173.72,173.72,0,0,1-10.4-20.39c-1.93-4.53-4-9-5.82-13.57-1.36-3.4-2.51-6.88-3.62-10.37-1.37-4.31-2.64-8.65-3.89-13-.57-2-1-4-1.5-6a19.72,19.72,0,0,0-1.09-4.11c-1-2-.79-4.2-1.3-6.27-.58-2.39-.88-4.85-1.28-7.28-.24-1.49-.41-3-.62-4.48-.11-.79-.2-1.58-.33-2.36-.18-1-.42-2-.59-3-.29-1.71-.55-3.43-.82-5.15a7.46,7.46,0,0,1-.11-.95c-.23-6.54-.65-13.08-.65-19.63q-.07-109.65,0-219.3c0-6.55.42-13.09.64-19.64,1.46-3,.53-6.42,1.61-9.57.76-2.21.6-4.73,1.05-7.07.79-4.13,1.29-8.32,2.42-12.39s1.84-8.22,3-12.25q2.53-8.54,5.51-17c1.71-4.88,3.53-9.73,5.61-14.46,2.41-5.45,5.08-10.78,7.8-16.08,2.18-4.26,4.52-8.44,7-12.55,2.23-3.76,4.57-7.46,7.09-11,3.81-5.38,7.72-10.71,11.79-15.89a178,178,0,0,1,17.21-19.2c3.93-3.73,7.64-7.71,11.73-11.25,4.93-4.27,10.16-8.2,15.26-12.28,1.74-1.39,3.41-2.87,5.22-4.15,2.86-2,5.76-4,8.74-5.81,5.15-3.17,10.28-6.38,15.59-9.27s10.81-5.41,16.26-8c2.43-1.17,4.9-2.28,7.4-3.29,3.76-1.52,7.56-2.94,11.36-4.36,3.34-1.25,6.64-2.61,10.06-3.61,4.65-1.36,9.39-2.42,14.09-3.6,2.76-.69,5.5-1.51,8.29-2,4.86-.83,9.65-2,14.61-2.41a87.74,87.74,0,0,0,9.31-1.66,5.67,5.67,0,0,1,.72-.06c6.62-.23,13.24-.64,19.87-.65Q445.22,150.78,500.29,150.85Z" transform="translate(-150.91 -150.84)"/><path class="cls-2" d="M580.7,309.34V691.47c0,32.38-27.56,58.64-61.57,58.64s-61.57-26.26-61.57-58.64V433.4A56.06,56.06,0,0,0,479,420.65l83.87-79.88a51.85,51.85,0,0,0,16.39-37.67,51.14,51.14,0,0,0-1-10.17A55.71,55.71,0,0,1,580.7,309.34Z" transform="translate(-150.91 -150.84)"/><path class="cls-3" d="M579.34,303.1a53.11,53.11,0,0,1-15.61,37.67l-79.88,79.88a53.26,53.26,0,1,1-75.32-75.33l60.05-60.05,19.83-19.82a52.88,52.88,0,0,1,25.25-14.14,58.62,58.62,0,0,1,64.69,41.58s0,0,0,0A52.63,52.63,0,0,1,579.34,303.1Z" transform="translate(-150.91 -150.84)"/></svg>